/vscmnt/brussel_pixiu_data/_data_brussel/112/vsc11236/PredSimResults/SUBJ11mtu3D/weighted-trackIG/worker_04.mot
version=1
nRows=6
nColumns=50
inDegrees=yes
endheader
                time	         pelvis_tilt	         pelvis_list	     pelvis_rotation	           pelvis_tx	           pelvis_ty	           pelvis_tz	       hip_flexion_r	     hip_adduction_r	      hip_rotation_r	        knee_angle_r	       ankle_angle_r	         mtp_angle_r	       hip_flexion_l	     hip_adduction_l	      hip_rotation_l	        knee_angle_l	       ankle_angle_l	         mtp_angle_l	    lumbar_extension	      lumbar_bending	     lumbar_rotation	 ercspn_r/activation	 intobl_r/activation	 extobl_r/activation	    abd_r/activation	    add_r/activation	hamstrings_r/activation	bifemsh_r/activation	glut_max_r/activation	iliopsoas_r/activation	rect_fem_r/activation	  vasti_r/activation	gastroc_r/activation	 soleus_r/activation	tib_ant_r/activation	 ercspn_l/activation	 intobl_l/activation	 extobl_l/activation	    abd_l/activation	    add_l/activation	hamstrings_l/activation	bifemsh_l/activation	glut_max_l/activation	iliopsoas_l/activation	rect_fem_l/activation	  vasti_l/activation	gastroc_l/activation	 soleus_l/activation	tib_ant_l/activation	
          0.00000000	         -6.13110633	         -4.97570002	          8.34520649	          0.00000000	          0.94055479	         -0.01792572	         31.00264936	          1.40870683	         -4.55518560	         -4.44222197	          5.30577237	          0.23118241	        -11.83113629	         -5.39185241	          4.72361135	         -7.30785790	         12.66888353	         26.73335373	         -3.69924190	          3.13732080	         -2.08140570	          0.07968634	          0.11977659	          0.02546543	          0.01022706	          0.12068343	          0.04865171	          0.17663956	          0.03316692	          0.08810383	          0.01184328	          0.01000003	          0.01592376	          0.01000001	          0.28022615	          0.04485281	          0.01000001	          0.01000005	          0.05342067	          0.02655672	          0.02424787	          0.12650329	          0.05482782	          0.45420796	          0.01000015	          0.01000004	          0.35384802	          0.26024288	          0.01000002	
          0.01422093	         -6.25863979	         -4.80524184	          8.37828210	          0.01784628	          0.93837288	         -0.01710283	         31.07846938	          1.41832533	         -4.55122642	         -6.15615975	          4.90273454	          0.19001018	        -12.09841860	         -5.29547933	          4.32905475	         -8.59482845	         12.17375960	         28.68991684	         -3.38852358	          3.40389522	         -2.26411330	          0.06441825	          0.11891478	          0.02058619	          0.01000006	          0.12576487	          0.05574452	          0.14279501	          0.07530752	          0.07122290	          0.01000005	          0.01000001	          0.01749068	          0.01237022	          0.30793524	          0.06434618	          0.01000001	          0.01000006	          0.04318513	          0.05465781	          0.02548889	          0.10226493	          0.04432266	          0.45533086	          0.01000011	          0.01000072	          0.32517875	          0.24559272	          0.00999999	
          0.02844187	         -6.36379253	         -4.62745570	          8.35731913	          0.03597427	          0.93663346	         -0.01618383	         30.94316064	          1.42027720	         -4.57804326	         -7.57199416	          4.34479418	          0.17891621	        -12.15835403	         -5.17614905	          3.90640713	        -10.30685172	         11.53198196	         30.75344703	         -3.07826287	          3.67594145	         -2.42308820	          0.07725277	          0.09613039	          0.01664182	          0.08311037	          0.14656464	          0.05707581	          0.11543517	          0.08827237	          0.05757640	          0.01000003	          0.01000000	          0.01413943	          0.01000006	          0.34946088	          0.09144675	          0.01000000	          0.01000003	          0.03491074	          0.04710790	          0.02291513	          0.08267070	          0.03583032	          0.44418697	          0.01000036	          0.01846642	          0.28415187	          0.22104722	          0.01000000	
          0.04266280	         -6.44564073	         -4.44059478	          8.28559745	          0.05413268	          0.93557413	         -0.01516796	         30.67110516	          1.42638734	         -4.63959571	         -8.78225548	          3.73294950	          0.13746344	        -11.93997474	         -5.03254774	          3.46405464	        -12.52103104	         10.67902238	         32.90473068	         -2.78982046	          3.95018683	         -2.55451219	          0.08285966	          0.07771155	          0.01345320	          0.12479914	          0.17326109	          0.05061480	          0.09331750	          0.11531178	          0.04654460	          0.01000006	          0.01000009	          0.01166339	          0.01001669	          0.37568382	          0.11925939	          0.01000000	          0.01000003	          0.02822175	          0.06104242	          0.02159510	          0.06683079	          0.02896514	          0.42036656	          0.01000026	          0.01492823	          0.22970760	          0.17869398	          0.00999999	
          0.05688374	         -6.50181827	         -4.25089271	          8.16726851	          0.07212676	          0.93528021	         -0.01407600	         30.33334714	          1.43971886	         -4.73497016	         -9.95207152	          3.31978896	          0.10759708	        -11.38417479	         -4.87086064	          2.99579955	        -15.31765678	          9.61580438	         35.02980993	         -2.53582680	          4.23393531	         -2.65350471	          0.08000134	          0.06282181	          0.01087554	          0.14011619	          0.17276288	          0.04957598	          0.07543763	          0.11541588	          0.03762653	          0.01000004	          0.05041722	          0.01000007	          0.01000006	          0.39539720	          0.13518548	          0.01000001	          0.01000004	          0.02281438	          0.07971962	          0.02793167	          0.05402587	          0.02341534	          0.37699835	          0.01000006	          0.01206795	          0.18569499	          0.14445573	          0.01000000	
          0.07110467	         -6.53195288	         -4.05546501	          8.00577567	          0.08983814	          0.93571986	         -0.01293821	         29.91067977	          1.45718813	         -4.84157730	        -11.01023192	          3.01563764	          0.08359879	        -10.47599623	         -4.69262974	          2.48804935	        -18.69512279	          8.33311786	         36.95296077	         -2.32310398	          4.52434302	         -2.71753906	          0.07417554	          0.05078498	          0.01000001	          0.14267924	          0.13966106	          0.05175923	          0.06098360	          0.10819076	          0.03041719	          0.01000003	          0.11498001	          0.01000009	          0.01000006	          0.40136164	          0.13942334	          0.01000001	          0.01000004	          0.01844309	          0.09498670	          0.03336606	          0.04367455	          0.01892890	          0.32082351	          0.01000002	          0.01000000	          0.15011533	          0.11677761	          0.01000000	
